<?xml version="1.0" encoding="UTF-8"?>
<svg version="1.1" xmlns="http://www.w3.org/2000/svg" width="1536" height="1024">
<path d="M0 0 C367.95 0 735.9 0 1115 0 C1115 107.25 1115 214.5 1115 325 C747.05 325 379.1 325 0 325 C0 217.75 0 110.5 0 0 Z " fill="#FDFDFD" transform="translate(124,337)"/>
<path d="M0 0 C1.32281982 0.00918457 1.32281982 0.00918457 2.67236328 0.01855469 C9.16730839 0.17471205 14.46385679 1.08535309 20.125 4.4375 C21.135625 4.97375 22.14625 5.51 23.1875 6.0625 C32.10861019 13.2753125 38.74468593 22.0485346 41.125 33.4375 C41.37620313 37.4757807 41.35627175 41.51719794 41.375 45.5625 C41.395625 46.65304687 41.41625 47.74359375 41.4375 48.8671875 C41.4943596 60.75084426 38.6775027 71.93492961 30.3125 80.6875 C26.82540972 84.00544038 23.40142273 86.25736292 19.125 88.4375 C18.135 89.0975 17.145 89.7575 16.125 90.4375 C10.76860856 91.82088386 5.3730376 91.69760447 -0.125 91.75 C-1.12402344 91.77900391 -2.12304688 91.80800781 -3.15234375 91.83789062 C-13.07290658 91.92218299 -20.16187621 88.71405551 -27.80078125 82.48828125 C-36.77090252 73.61951728 -39.89845859 61.37895269 -40.11694336 49.1328125 C-40.1745552 32.98752964 -37.63079941 21.42747536 -26.25 9.5 C-18.65371809 2.30795482 -10.23961763 -0.12076399 0 0 Z " fill="#07140D" transform="translate(728.875,478.5625)"/>
<path d="M0 0 C8.89109532 8.14714653 12.43912102 16.9543744 13.9140625 28.75390625 C7.9740625 28.75390625 2.0340625 28.75390625 -4.0859375 28.75390625 C-5.2203125 26.56765625 -6.3546875 24.38140625 -7.5234375 22.12890625 C-11.74951397 14.46287739 -16.32893234 10.69194539 -24.4609375 7.37890625 C-34.01756863 5.73121123 -43.40131023 6.0153676 -51.6875 11.46484375 C-59.46693626 17.78710464 -65.05808516 26.8456513 -67.0859375 36.75390625 C-68.21518541 52.28924237 -68.70610894 70.1332593 -58.0859375 82.75390625 C-52.97571781 88.10922041 -47.31036882 91.76527046 -39.78125 92.15234375 C-38.25784963 92.1655405 -36.73413283 92.15717007 -35.2109375 92.12890625 C-34.01730591 92.11150391 -34.01730591 92.11150391 -32.79956055 92.09375 C-24.85812674 91.87231791 -19.00576457 91.1501417 -13.3359375 85.19140625 C-9.78470475 80.74615687 -7.44952173 75.91081729 -5.0859375 70.75390625 C1.1840625 70.75390625 7.4540625 70.75390625 13.9140625 70.75390625 C12.55603723 82.97613366 8.76739526 91.11889424 -0.2421875 99.55859375 C-10.88703079 107.77617882 -22.92194724 110.11186597 -36.0234375 110.06640625 C-36.94833984 110.08251953 -37.87324219 110.09863281 -38.82617188 110.11523438 C-49.71816955 110.12286717 -58.17645428 106.87917596 -67.0859375 100.75390625 C-67.7871875 100.29757812 -68.4884375 99.84125 -69.2109375 99.37109375 C-79.37632928 91.78675848 -85.02298823 75.84411409 -87.0859375 63.75390625 C-88.29412893 44.58615758 -87.71477784 27.31139623 -77.0859375 10.75390625 C-76.63476562 10.0371875 -76.18359375 9.32046875 -75.71875 8.58203125 C-69.10145365 -1.06351936 -59.38057502 -7.51980193 -48.0859375 -10.24609375 C-31.11407958 -13.22361268 -13.76775913 -10.94290019 0 0 Z " fill="#07140D" transform="translate(875.0859375,460.24609375)"/>
<path d="M0 0 C0.64582031 0.38929688 1.29164062 0.77859375 1.95703125 1.1796875 C2.57191406 1.50710938 3.18679688 1.83453125 3.8203125 2.171875 C11.23871533 6.67884257 16.34280652 14.81907158 19.45703125 22.7421875 C20.95703125 29.1796875 20.95703125 29.1796875 20.95703125 47.1796875 C1.15703125 47.5096875 -18.64296875 47.8396875 -39.04296875 48.1796875 C-35.81917623 61.26576018 -35.81917623 61.26576018 -27.3671875 70.359375 C-23.2631567 72.60670561 -20.27040214 72.87187631 -15.66796875 72.8046875 C-14.5385083 72.79646973 -14.5385083 72.79646973 -13.38623047 72.78808594 C-8.03644559 72.58603198 -4.51819847 71.5940851 -0.48828125 67.8828125 C1.03118403 66.14959773 1.03118403 66.14959773 2.4609375 64 C3.95703125 62.1796875 3.95703125 62.1796875 7.01953125 61.8046875 C11.75640491 62.25581832 16.31920124 63.13454271 20.95703125 64.1796875 C18.48874222 72.83711918 14.03500458 78.64084428 6.95703125 84.1796875 C-3.72029247 90.03599096 -17.79739362 91.22541736 -29.54296875 87.9921875 C-40.25657604 84.12238955 -48.40601592 77.1222269 -53.41796875 66.8671875 C-59.19131843 53.23392426 -59.79258184 39.20863726 -55.04296875 25.1796875 C-54.82640625 24.46039063 -54.60984375 23.74109375 -54.38671875 23 C-51.51153562 14.20330875 -45.35520679 7.63737241 -38.04296875 2.1796875 C-37.37265625 1.66921875 -36.70234375 1.15875 -36.01171875 0.6328125 C-26.35710183 -5.41832064 -10.049419 -5.10390808 0 0 Z " fill="#07130D" transform="translate(1193.04296875,481.8203125)"/>
<path d="M0 0 C23.43 0 46.86 0 71 0 C71 5.28 71 10.56 71 16 C53.18 16 35.36 16 17 16 C17 27.55 17 39.1 17 51 C33.83 51 50.66 51 68 51 C68 55.95 68 60.9 68 66 C51.17 66 34.34 66 17 66 C17 77.88 17 89.76 17 102 C34.82 102 52.64 102 71 102 C71 107.28 71 112.56 71 118 C47.57 118 24.14 118 0 118 C0 79.06 0 40.12 0 0 Z " fill="#011108" transform="translate(502,451)"/>
<path d="M0 0 C10.42870604 -0.4384042 17.71271819 2.24248062 25.52734375 9.109375 C30.36862646 14.72230321 32.00395494 19.16628875 31.81640625 26.43359375 C31.80649658 27.17577148 31.79658691 27.91794922 31.78637695 28.68261719 C31.57398763 35.01992974 30.20323172 40.50649217 27.31640625 46.18359375 C26.90003906 47.01246094 26.48367188 47.84132813 26.0546875 48.6953125 C23.91444948 51.75897907 21.36022415 53.66801977 18.31640625 55.74609375 C17.7140918 56.16665039 17.11177734 56.58720703 16.49121094 57.02050781 C8.95192763 62.22249946 1.17933072 67.06773431 -6.61035156 71.8828125 C-8.36151222 72.98151527 -10.08466777 74.12466602 -11.80078125 75.27734375 C-16.16856896 78.16198859 -20.00972609 80.35870951 -25.375 79.95703125 C-30.6019487 78.20587077 -34.30345776 74.41037949 -37.68359375 70.18359375 C-39.1759695 67.15542769 -39.53221203 64.53561759 -39.68359375 61.18359375 C-39.7609375 60.301875 -39.83828125 59.42015625 -39.91796875 58.51171875 C-40.7220913 41.98253291 -34.35668946 24.88650942 -23.30859375 12.68359375 C-16.28205194 5.28501605 -10.25765519 0.70176098 0 0 Z " fill="#329D47" transform="translate(276.68359375,381.81640625)"/>
<path d="M0 0 C6.27 0 12.54 0 19 0 C21.49982526 5.92551173 23.62979058 11.85409993 25.5 18 C26.82223321 22.34226587 28.17072376 26.62648658 29.9375 30.8125 C31.9494276 35.64112625 33.54231283 40.58060522 35.125 45.5625 C35.37886475 46.35438721 35.63272949 47.14627441 35.89428711 47.9621582 C37.55707365 53.26273692 38.85934189 58.56286302 40 64 C40.66 64 41.32 64 42 64 C42.10940918 63.1745166 42.21881836 62.3490332 42.33154297 61.49853516 C43.09134168 57.52194072 44.33003582 53.82150764 45.6953125 50.0234375 C45.9638504 49.2637265 46.23238831 48.5040155 46.50906372 47.72128296 C47.37637593 45.27083783 48.25055111 42.8229064 49.125 40.375 C49.7201931 38.69840774 50.31491885 37.02164949 50.90917969 35.34472656 C51.7910454 32.85689107 52.67340107 30.36923861 53.55786133 27.88232422 C55.18381288 23.31035082 56.79515907 18.73389616 58.3828125 14.1484375 C58.70749512 13.21080566 59.03217773 12.27317383 59.36669922 11.30712891 C59.940502 9.6459873 60.51254332 7.98423582 61.08251953 6.32177734 C62.89001652 1.10998348 62.89001652 1.10998348 64 0 C65.41570123 -0.08651611 66.835595 -0.10704904 68.25390625 -0.09765625 C69.53491211 -0.09282227 69.53491211 -0.09282227 70.84179688 -0.08789062 C72.18854492 -0.07532227 72.18854492 -0.07532227 73.5625 -0.0625 C74.46419922 -0.05798828 75.36589844 -0.05347656 76.29492188 -0.04882812 C78.53001314 -0.03700225 80.76497437 -0.0205222 83 0 C82.72627563 0.81029663 82.72627563 0.81029663 82.44702148 1.63696289 C80.84073748 6.41985716 79.29840357 11.2176194 77.80664062 16.03735352 C75.78329221 22.56344875 73.71970783 28.98535936 71.0625 35.28515625 C69.55393823 39.13975341 68.28857384 43.06729814 67 47 C65.18309784 52.53615483 63.28099545 57.97551097 61.046875 63.359375 C59.67942652 66.80861071 58.46904828 70.30893922 57.25 73.8125 C54.8812743 80.5592474 52.47949882 87.29311021 50 94 C49.69223633 94.85956299 49.38447266 95.71912598 49.06738281 96.60473633 C45.59371245 105.89455477 40.86554735 114.02942658 32 119 C27.53325287 120.82024605 23.74724003 121.27093467 18.9375 121.25 C17.75027344 121.25515625 16.56304688 121.2603125 15.33984375 121.265625 C12.12511887 121.00995097 9.8912914 120.37732596 7 119 C8.0681847 113.88634986 9.23107476 108.92772031 11 104 C11.73605469 103.98582031 12.47210937 103.97164062 13.23046875 103.95703125 C19.59447959 103.69683009 19.59447959 103.69683009 25.0625 100.6875 C28.80300974 95.499051 29.80025532 91.41243545 29 85 C27.815955 80.38690309 26.27382305 75.92593345 24.6875 71.4375 C24.28337891 70.25736328 23.87925781 69.07722656 23.46289062 67.86132812 C21.88443804 63.27483256 20.27166658 58.70538811 18.56176758 54.16625977 C16.91114202 49.78358682 15.32697695 45.37836954 13.75 40.96875 C13.45061523 40.13339722 13.15123047 39.29804443 12.84277344 38.43737793 C11.57530231 34.90078323 10.30919674 31.36370009 9.04296875 27.82666016 C8.11245524 25.22801929 7.18124174 22.62962997 6.25 20.03125 C5.96866211 19.24455933 5.68732422 18.45786865 5.39746094 17.64733887 C5.12708008 16.89295532 4.85669922 16.13857178 4.578125 15.36132812 C4.31837891 14.6356665 4.05863281 13.91000488 3.79101562 13.16235352 C2.98914378 10.97032297 2.1435888 8.79808014 1.296875 6.62304688 C0 3 0 3 0 0 Z " fill="#07140D" transform="translate(905,480)"/>
<path d="M0 0 C6.65241893 3.79304588 11.40467175 10.53636004 13.54199219 17.85620117 C15.74189772 28.15330698 15.3189496 40.84876374 10 50 C9.34644531 51.28777344 9.34644531 51.28777344 8.6796875 52.6015625 C3.20472643 62.74370349 -5.50164932 67.70267512 -16 72 C-24.71789334 73.93859945 -35.19685538 74.83794966 -43 70 C-50.9532875 63.86460679 -57.0420025 57.49309416 -58.5625 47.1875 C-58.1209724 37.63946564 -49.40049809 29.30978237 -43 23 C-36.9989745 17.57685103 -30.66349548 12.90389413 -23.75390625 8.70703125 C-21.86740771 7.53766974 -20.02128635 6.30131102 -18.21484375 5.01171875 C-12.32293958 0.87661301 -7.28614204 -2.09385809 0 0 Z " fill="#2F9C45" transform="translate(374,559)"/>
<path d="M0 0 C1.52246338 0.00918457 1.52246338 0.00918457 3.07568359 0.01855469 C11.64660036 0.19789143 18.02540224 1.77995463 25.4375 6.0625 C28.87664473 9.79642856 31.2586161 13.96406193 33.625 18.4375 C34.25341797 19.61699219 34.25341797 19.61699219 34.89453125 20.8203125 C38.16551889 27.82461818 38.66785049 34.80775621 37.625 42.4375 C36.39324843 45.82603396 34.75908003 48.54656601 32.625 51.4375 C32.0475 52.324375 31.47 53.21125 30.875 54.125 C23.82318422 61.37269955 16.36402288 64.35280574 6.4375 64.8125 C-6.35067046 64.49368135 -15.22244661 59.38922576 -24.18359375 50.6796875 C-31.32107477 43.02602955 -33.08218371 35.47449107 -32.75 25.09375 C-31.88234159 16.63408047 -28.74321041 11.15992566 -22.86328125 5.12890625 C-15.85036705 0.36188608 -8.26573998 -0.0844694 0 0 Z " fill="#349F49" transform="translate(253.375,560.5625)"/>
<path d="M0 0 C8.23196437 6.05964044 14.50425582 14.01921925 16.09375 24.27734375 C17.23385419 40.96772147 17.23385419 40.96772147 12.09375 47.27734375 C6.2311819 53.67169347 0.00975995 57.26754455 -8.74609375 57.67578125 C-10.44531228 57.68364194 -12.14467294 57.6756365 -13.84375 57.65234375 C-14.68615234 57.66394531 -15.52855469 57.67554688 -16.39648438 57.6875 C-25.03767892 57.64758686 -33.61947324 55.55065847 -39.90625 49.27734375 C-48.52177137 38.91523457 -53.82064196 27.81048166 -53.29296875 14 C-52.69945102 9.82139537 -51.26642562 6.73996982 -48.90625 3.27734375 C-48.184375 2.20484375 -47.4625 1.13234375 -46.71875 0.02734375 C-33.74531828 -12.65778949 -13.72761893 -8.86842672 0 0 Z " fill="#2F9B45" transform="translate(378.90625,402.72265625)"/>
<path d="M0 0 C7.21082996 5.28653223 13.19883341 11.41121642 15.60546875 20.21484375 C16.15410167 24.08786621 16.22418622 27.90493935 16.25 31.8125 C16.270625 32.58142578 16.29125 33.35035156 16.3125 34.14257812 C16.37591943 43.53658126 12.55403701 51.51521423 7 59 C0.74857185 65.17377065 -6.15229675 68.10729555 -14.875 68.375 C-24.05427337 68.08598006 -30.54194354 66.13100467 -37.30859375 59.81640625 C-45.13648906 51.41000597 -43.18206733 41.02556309 -42.87890625 30.2578125 C-42.48219549 19.23996922 -41.99363732 10.07382771 -34 1.73046875 C-24.5090256 -6.48144856 -10.52176309 -6.33348846 0 0 Z " fill="#349F47" transform="translate(420,479)"/>
<path d="M0 0 C1.29164063 -0.00386719 1.29164063 -0.00386719 2.609375 -0.0078125 C3.5065625 -0.00007813 4.40375 0.00765625 5.328125 0.015625 C6.20984375 0.00789063 7.0915625 0.00015625 8 -0.0078125 C16.55579838 0.01765119 25.64586979 1.73525726 32.16015625 7.71875 C36.00311661 12.10437624 36.72059203 15.5350736 36.703125 21.203125 C36.70699219 22.45416016 36.70699219 22.45416016 36.7109375 23.73046875 C36.578125 26.265625 36.578125 26.265625 36.08081055 28.6262207 C35.59903941 31.15581167 35.43848865 33.4610617 35.40234375 36.03125 C35.37849609 36.92199219 35.35464844 37.81273437 35.33007812 38.73046875 C35.28747623 40.5713869 35.25602826 42.41260061 35.23632812 44.25390625 C34.9976849 51.9681872 33.23550371 58.11872915 28.203125 64.078125 C19.6241547 71.22726691 12.43141066 72.21843615 1.578125 71.265625 C-6.10299566 69.00885305 -12.36290282 64.04107373 -16.66796875 57.3203125 C-22.70128651 46.04927933 -23.82688271 30.76272943 -20.359375 18.51171875 C-16.69288741 10.71046934 -9.45041588 0.02741521 0 0 Z " fill="#3CA74C" transform="translate(211.421875,474.734375)"/>
<path d="M0 0 C6.7636152 5.42856198 11.75033116 11.52047899 14 20 C14 21.98 14 23.96 14 26 C8.39 26 2.78 26 -3 26 C-3.70125 24.618125 -4.4025 23.23625 -5.125 21.8125 C-8.44486895 15.73536913 -8.44486895 15.73536913 -14 12 C-22.27646441 10.96774609 -28.18771905 10.92015256 -35 16 C-35.99 16.33 -36.98 16.66 -38 17 C-39.11785113 19.11785113 -39.11785113 19.11785113 -40 22 C-40.24371338 22.63760254 -40.48742676 23.27520508 -40.73852539 23.93212891 C-42.78930139 29.51692681 -43.51339296 34.44259918 -43.4375 40.375 C-43.43065186 41.20281982 -43.42380371 42.03063965 -43.41674805 42.88354492 C-43.17174492 52.26248488 -40.93788762 60.40054592 -34 67 C-28.02477885 70.02954195 -21.52901122 69.62144525 -15 69 C-9.0022289 66.20793414 -5.91001356 61.82002712 -3 56 C2.61 56 8.22 56 14 56 C12.09132076 67.45207544 8.76824524 75.11885207 -0.65625 82.25390625 C-9.9141587 88.17110733 -23.25196183 88.52731112 -33.71484375 86.46484375 C-44.26341851 83.16503319 -52.17437985 77.28052295 -57.61328125 67.6875 C-64.98179236 53.40711791 -66.16398389 38.66395286 -61.265625 23.26171875 C-59.38602519 18.41768837 -57.00868618 14.22431696 -54 10 C-53.57203125 9.36578125 -53.1440625 8.7315625 -52.703125 8.078125 C-48.16710736 2.04788978 -40.89239175 -2.59517299 -33.66015625 -4.671875 C-22.00308354 -6.10975181 -10.36132131 -6.15425532 0 0 Z " fill="#08140E" transform="translate(657,484)"/>
<path d="M0 0 C6.9336485 5.67298514 12.37167496 12.01574865 13.4375 21.125 C13.540625 22.48625 13.64375 23.8475 13.75 25.25 C7.81 25.25 1.87 25.25 -4.25 25.25 C-4.78625 23.868125 -5.3225 22.48625 -5.875 21.0625 C-7.86671303 16.75278649 -9.60938645 12.9891849 -14.25 11.25 C-22.52674359 10.21885953 -28.43717664 10.1697481 -35.25 15.25 C-36.24 15.58 -37.23 15.91 -38.25 16.25 C-39.36785113 18.36785113 -39.36785113 18.36785113 -40.25 21.25 C-40.49443848 21.87455078 -40.73887695 22.49910156 -40.99072266 23.14257812 C-43.21836058 29.1101953 -43.70801412 34.41325516 -43.625 40.75 C-43.63660156 41.63558594 -43.64820313 42.52117188 -43.66015625 43.43359375 C-43.62794413 50.74574445 -42.62588019 57.3739345 -37.875 63.125 C-31.04485558 68.65416453 -25.89677797 69.01765476 -17.25 68.25 C-12.96943935 67.36283717 -10.68792672 65.8062853 -7.9375 62.3125 C-6.65582757 59.9865019 -5.43768273 57.62536547 -4.25 55.25 C1.69 55.25 7.63 55.25 13.75 55.25 C12.35913344 64.10096904 10.36717344 72.7184733 3.125 78.625 C1.69637471 79.54770845 0.23606435 80.42297288 -1.25 81.25 C-1.96027344 81.6625 -2.67054687 82.075 -3.40234375 82.5 C-13.25879917 87.10074419 -28.84762289 87.715273 -39.16015625 84.109375 C-42.09883735 82.69761923 -44.62984677 81.18297261 -47.25 79.25 C-47.93964844 78.77046875 -48.62929688 78.2909375 -49.33984375 77.796875 C-57.26455369 71.69836672 -61.09442436 62.74708263 -62.80859375 53.109375 C-64.65329383 36.98049292 -64.34928993 21.96677305 -54.2265625 8.5703125 C-39.78564181 -8.38207266 -19.28575731 -10.38463855 0 0 Z " fill="#07140D" transform="translate(1063.25,484.75)"/>
<path d="M0 0 C7.41360277 6.73963888 12.56131634 12.92029659 13.21875 23.234375 C13.25275905 24.90593652 13.26251609 26.5781394 13.25 28.25 C13.24500488 29.12744873 13.24000977 30.00489746 13.23486328 30.90893555 C12.97490852 40.63751833 10.12773746 49.0593501 3.265625 56.1640625 C-1.56452966 60.42156996 -6.17597666 61.11503136 -12.4375 60.90234375 C-18.13931371 60.08666762 -22.3256944 57.74639967 -26.0703125 53.375 C-31.4612046 45.66628473 -32.61255983 38.93676835 -32.625 29.6875 C-32.64949219 28.74068359 -32.67398438 27.79386719 -32.69921875 26.81835938 C-32.73787749 17.45650007 -29.52835916 9.50132173 -23.25 2.5 C-16.6741144 -2.31162361 -7.44091736 -3.43426955 0 0 Z " fill="#FBFBFB" transform="translate(739.25,495.5)"/>
<path d="M0 0 C5.94 0 11.88 0 18 0 C18 39.27 18 78.54 18 119 C12.06 119 6.12 119 0 119 C0 79.73 0 40.46 0 0 Z " fill="#011108" transform="translate(1099,450)"/>
<path d="M0 0 C23.43 0 46.86 0 71 0 C71 5.28 71 10.56 71 16 C53.18 16 35.36 16 17 16 C17 27.55 17 39.1 17 51 C33.83 51 50.66 51 68 51 C68 55.95 68 60.9 68 66 C65.36 66 62.72 66 60 66 C60 65.67 60 65.34 60 65 C62.31 65 64.62 65 67 65 C66.67 61.37 66.34 57.74 66 54 C65.15518066 54.00523682 64.31036133 54.01047363 63.43994141 54.01586914 C32.39652927 54.18272378 32.39652927 54.18272378 17 53 C14.56474466 46.64676481 14.66291218 40.58783738 14.68432617 33.89477539 C14.68750749 31.80758427 14.66391115 29.72178413 14.63867188 27.63476562 C14.63802734 26.31798828 14.63738281 25.00121094 14.63671875 23.64453125 C14.63373779 22.44159424 14.63075684 21.23865723 14.62768555 19.99926758 C15 17 15 17 16.39770508 15.1472168 C19.34850386 13.03449343 21.14125875 12.89556751 24.72509766 12.97827148 C26.19639633 13.00841591 26.19639633 13.00841591 27.69741821 13.03916931 C29.28965714 13.07972191 29.28965714 13.07972191 30.9140625 13.12109375 C31.99883881 13.14470474 33.08361511 13.16831573 34.20126343 13.19264221 C37.67597162 13.2693943 41.15046338 13.35336904 44.625 13.4375 C46.97655181 13.49070912 49.32811427 13.54344958 51.6796875 13.59570312 C57.45326281 13.7250251 63.22665411 13.8608262 69 14 C69 9.71 69 5.42 69 1 C68.34 1.33 67.68 1.66 67 2 C65.55323027 2.09461852 64.10220347 2.12794173 62.65234375 2.12939453 C61.74959717 2.13254669 60.84685059 2.13569885 59.91674805 2.13894653 C58.93359619 2.1369223 57.95044434 2.13489807 56.9375 2.1328125 C55.91760986 2.13376923 54.89771973 2.13472595 53.84692383 2.13571167 C51.6746413 2.13639397 49.50235676 2.13453623 47.33007812 2.13037109 C44.06896101 2.12511123 40.80798729 2.13026798 37.546875 2.13671875 C35.42708304 2.13605626 33.30729116 2.1347716 31.1875 2.1328125 C29.76135376 2.13584885 29.76135376 2.13584885 28.30639648 2.13894653 C19.15144627 2.1086712 10.18744925 1.51041385 1 1 C1 39.28 1 77.56 1 117 C6.94 116.505 6.94 116.505 13 116 C15.16674394 115.92699398 17.33496187 115.88150221 19.50292969 115.88647461 C20.62318542 115.88655014 21.74344116 115.88662567 22.89764404 115.88670349 C24.06064026 115.89186478 25.22363647 115.89702606 26.421875 115.90234375 C27.64787415 115.9037587 28.87387329 115.90517365 30.13702393 115.90663147 C34.00804201 115.91217685 37.87899974 115.92471885 41.75 115.9375 C44.39322832 115.94252207 47.03645757 115.94708373 49.6796875 115.95117188 C56.11981451 115.96212833 62.55989706 115.97935457 69 116 C69 112.04 69 108.08 69 104 C67.39970947 104.00523682 65.79941895 104.01047363 64.15063477 104.01586914 C58.23739171 104.03391114 52.32415111 104.04542907 46.41088867 104.05493164 C43.84708243 104.0599737 41.28327909 104.06680714 38.71948242 104.07543945 C35.04344979 104.08751064 31.36745502 104.09322942 27.69140625 104.09765625 C26.53725723 104.10281754 25.38310822 104.10797882 24.19398499 104.11329651 C22.6024485 104.11340981 22.6024485 104.11340981 20.97875977 104.11352539 C20.03944107 104.115746 19.10012238 104.11796661 18.13233948 104.12025452 C16 104 16 104 15 103 C14.91148471 100.40640678 14.88474055 97.83960309 14.90234375 95.24609375 C14.9037587 94.47064713 14.90517365 93.6952005 14.90663147 92.89625549 C14.91224655 90.40996506 14.92480154 87.9237634 14.9375 85.4375 C14.94251306 83.75586067 14.9470763 82.07421994 14.95117188 80.39257812 C14.96222087 76.26168434 14.97949555 72.13085724 15 68 C15.99 67.505 15.99 67.505 17 67 C17 78.55 17 90.1 17 102 C34.82 102 52.64 102 71 102 C71 107.28 71 112.56 71 118 C47.57 118 24.14 118 0 118 C0 79.06 0 40.12 0 0 Z " fill="#000301" transform="translate(502,451)"/>
<path d="M0 0 C6.66842018 3.579722 12.28174829 8.88076933 15 16 C15 18.64 15 21.28 15 24 C0.15 24 -14.7 24 -30 24 C-27.74452555 10.46715328 -27.74452555 10.46715328 -23.625 6.375 C-22.85414062 5.57835937 -22.08328125 4.78171875 -21.2890625 3.9609375 C-15.07993389 -1.35814537 -7.78329661 -1.27391282 0 0 Z " fill="#FAFAFA" transform="translate(1183,493)"/>
<path d="M0 0 C5.94 0 11.88 0 18 0 C18 39.27 18 78.54 18 119 C12.06 119 6.12 119 0 119 C0 79.73 0 40.46 0 0 Z M2 2 C-0.48749423 13.39860423 0.87477804 26.33833869 0.90234375 37.921875 C0.90421162 40.23642954 0.90563378 42.55098447 0.90663147 44.86553955 C0.91042759 50.92184565 0.92023271 56.97812731 0.93133545 63.03442383 C0.9416124 69.22867502 0.94614249 75.42293021 0.95117188 81.6171875 C0.96185789 93.74480233 0.97889895 105.87239912 1 118 C5.95 118 10.9 118 16 118 C16 79.72 16 41.44 16 2 C11.50927531 0.87731883 6.31160613 -0.15580306 2 2 Z " fill="#000401" transform="translate(1099,450)"/>
<path d="M0 0 C0.66 0.33 1.32 0.66 2 1 C1.66363048 6.38191239 -1.41738052 10.20337449 -5 14 C-7.28056981 15.63744912 -9.45453638 16.77817746 -12 18 C-12 17.01 -12 16.02 -12 15 C-11.01 14.38125 -11.01 14.38125 -10 13.75 C-7.56637705 12.03627334 -7.56637705 12.03627334 -7.75 8.3125 C-7.87375 6.6728125 -7.87375 6.6728125 -8 5 C-7.05125 4.54625 -6.1025 4.0925 -5.125 3.625 C-1.99686321 2.19761746 -1.99686321 2.19761746 0 0 Z " fill="#269338" transform="translate(287,603)"/>
<path d="M0 0 C3 1 3 1 4 3 C6.64 2.67 9.28 2.34 12 2 C11.979375 3.2375 11.95875 4.475 11.9375 5.75 C11.93233319 8.6640825 12.06984442 11.20953327 13 14 C8.80665325 12.64138503 6.57201604 10.87073026 3.6875 7.5625 C2.99011719 6.78003906 2.29273438 5.99757813 1.57421875 5.19140625 C0 3 0 3 0 0 Z " fill="#2D983D" transform="translate(225,603)"/>
<path d="M0 0 C0.66 0 1.32 0 2 0 C1.89300781 0.83402344 1.78601563 1.66804687 1.67578125 2.52734375 C0.90152391 9.79537232 0.93821194 15.30558204 4 22 C3.01 22 2.02 22 1 22 C-2.05127989 16.11538878 -3.77731901 11.66273438 -3 5 C-1.625 2 -1.625 2 0 0 Z " fill="#2A953A" transform="translate(319,597)"/>
<path d="M0 0 C5.61 0 11.22 0 17 0 C14.51382153 2.48617847 12.3192387 2.8935871 9 4 C8.13375 4.5775 7.2675 5.155 6.375 5.75 C5.59125 6.1625 4.8075 6.575 4 7 C1.6875 6.1875 1.6875 6.1875 0 5 C0 3.35 0 1.7 0 0 Z " fill="#239535" transform="translate(244,561)"/>
<path d="M0 0 C2.28344312 1.68776231 3.81391099 3.02842477 4.36230469 5.89160156 C4.46592516 8.14765528 4.44695744 10.36780878 4.375 12.625 C4.37371094 13.40101563 4.37242187 14.17703125 4.37109375 14.9765625 C4.28137401 20.71862599 4.28137401 20.71862599 2 23 C1.19347492 20.11832319 0.82484994 17.43968453 0.68359375 14.453125 C0.64169922 13.60878906 0.59980469 12.76445312 0.55664062 11.89453125 C0.51732422 11.02183594 0.47800781 10.14914062 0.4375 9.25 C0.39431641 8.36183594 0.35113281 7.47367187 0.30664062 6.55859375 C0.20086385 4.37254037 0.09877454 2.18637911 0 0 Z " fill="#239032" transform="translate(304,396)"/>
<path d="M0 0 C5.61189938 0.14029748 8.37095848 2.63685807 12.36328125 6.2109375 C14 8 14 8 15 11 C12.50638429 9.79618552 10.31856917 8.54571278 8 7 C5.37468476 6.83286431 5.37468476 6.83286431 3 7 C2.01 4.69 1.02 2.38 0 0 Z " fill="#219032" transform="translate(288,384)"/>
<path d="M0 0 C-0.93527609 2.08638511 -1.75030647 3.75101382 -3.37890625 5.375 C-5.79986339 7.80179077 -7.68833236 10.58463796 -9.6953125 13.35546875 C-10.12585938 13.89816406 -10.55640625 14.44085938 -11 15 C-11.33 15 -11.66 15 -12 15 C-11.74086272 8.65113652 -9.61254026 5.3311386 -5 1 C-3 0 -3 0 0 0 Z " fill="#2E963E" transform="translate(340,399)"/>
<path d="M0 0 C3.84685385 1.24762828 6.02929405 2.3870391 8 6 C7.67 6.99 7.34 7.98 7 9 C4.4375 10.1875 4.4375 10.1875 2 11 C1.77213542 9.01432292 1.54427083 7.02864583 1.31640625 5.04296875 C1.02829265 2.80603607 1.02829265 2.80603607 0 0 Z " fill="#29963B" transform="translate(275,566)"/>
<path d="M0 0 C1.32 0.33 2.64 0.66 4 1 C3.9071875 2.10408203 3.9071875 2.10408203 3.8125 3.23046875 C4.03734502 6.55161709 4.92327836 7.75986299 7 10.3125 C7.556875 11.00988281 8.11375 11.70726562 8.6875 12.42578125 C9.120625 12.94527344 9.55375 13.46476563 10 14 C7 14 7 14 5.4296875 12.71484375 C1.7044897 8.45613773 0.23180096 5.67912356 0 0 Z " fill="#279B36" transform="translate(193,524)"/>
<path d="M0 0 C0.33 0 0.66 0 1 0 C1.05428973 2.22889496 1.09292338 4.45817471 1.125 6.6875 C1.14820313 7.92886719 1.17140625 9.17023437 1.1953125 10.44921875 C1.01032021 13.81237857 0.45767895 15.9985587 -1 19 C-1.66 19 -2.32 19 -3 19 C-3.20288303 13.82648283 -3.25094414 9.76670524 -1 5 C-0.63128912 3.34080104 -0.28718326 1.6752357 0 0 Z " fill="#1D902B" transform="translate(435,506)"/>
<path d="M0 0 C0.66 0.33 1.32 0.66 2 1 C0.7508258 4.45925163 -0.67527795 7.14693203 -3 10 C-4.32 9.67 -5.64 9.34 -7 9 C-5.03681826 5.46627288 -2.95929119 2.75520215 0 0 Z " fill="#2B993A" transform="translate(429,529)"/>
<path d="M0 0 C1.60407328 -0.02708567 3.2082785 -0.04643483 4.8125 -0.0625 C5.70582031 -0.07410156 6.59914063 -0.08570313 7.51953125 -0.09765625 C10 0 10 0 13 1 C12.67 1.99 12.34 2.98 12 4 C11.01 3.67 10.02 3.34 9 3 C8.67 3.66 8.34 4.32 8 5 C6.68 4.67 5.36 4.34 4 4 C4 3.34 4 2.68 4 2 C2.68 1.67 1.36 1.34 0 1 C0 0.67 0 0.34 0 0 Z " fill="#259437" transform="translate(400,475)"/>
<path d="M0 0 C0.33 0 0.66 0 1 0 C1.95261487 4.76307437 2.08333357 9.1666528 2 14 C1.34 14 0.68 14 0 14 C-1.31164842 11.37670316 -1.13262846 9.36301375 -1.125 6.4375 C-1.12757813 5.44621094 -1.13015625 4.45492187 -1.1328125 3.43359375 C-1 1 -1 1 0 0 Z " fill="#1B902C" transform="translate(378,518)"/>
<path d="M0 0 C-0.33 0.66 -0.66 1.32 -1 2 C-5.62 2 -10.24 2 -15 2 C-15 1.34 -15 0.68 -15 0 C-9.62374766 -0.84888195 -5.34629602 -1.0024305 0 0 Z " fill="#1D8B2C" transform="translate(353,630)"/>
<path d="M0 0 C6.625 -0.125 6.625 -0.125 10 1 C9.6875 2.9375 9.6875 2.9375 9 5 C8.01 5.33 7.02 5.66 6 6 C5.67 4.68 5.34 3.36 5 2 C3.35 1.67 1.7 1.34 0 1 C0 0.67 0 0.34 0 0 Z " fill="#209532" transform="translate(262,562)"/>
<path d="M0 0 C0.8971875 0.309375 0.8971875 0.309375 1.8125 0.625 C-1.409607 4.4915284 -4.33672412 5.50559018 -9.1875 6.625 C-3.65359043 -0.62632979 -3.65359043 -0.62632979 0 0 Z " fill="#208F2F" transform="translate(266.1875,385.375)"/>
<path d="M0 0 C0.99 0.33 1.98 0.66 3 1 C2.01 1.495 2.01 1.495 1 2 C-0.04808041 3.97522846 -1.0520411 5.97481509 -2 8 C-2.99 7.67 -3.98 7.34 -5 7 C-4.6189482 4.23737447 -4.16402868 3.15856106 -2.125 1.1875 C-1.42375 0.795625 -0.7225 0.40375 0 0 Z " fill="#249234" transform="translate(344,572)"/>
<path d="M0 0 C0.33 0 0.66 0 1 0 C1 1.98 1 3.96 1 6 C-4.28 6 -9.56 6 -15 6 C-15 5.67 -15 5.34 -15 5 C-13.87851562 4.96132813 -13.87851562 4.96132813 -12.734375 4.921875 C-6.61176915 4.72825875 -6.61176915 4.72825875 -1.375 1.9375 C-0.92125 1.298125 -0.4675 0.65875 0 0 Z " fill="#262E28" transform="translate(670,504)"/>
<path d="M0 0 C2.9375 0.8125 2.9375 0.8125 6 2 C6.33 2.99 6.66 3.98 7 5 C7.66 5 8.32 5 9 5 C8.67 5.99 8.34 6.98 8 8 C6.66102417 7.04956626 5.32894573 6.08940853 4 5.125 C3.2575 4.59132813 2.515 4.05765625 1.75 3.5078125 C1.1725 3.01023437 0.595 2.51265625 0 2 C0 1.34 0 0.68 0 0 Z " fill="#121412" transform="translate(1185,494)"/>
<path d="M0 0 C1.32 0.33 2.64 0.66 4 1 C2.68 2.32 1.36 3.64 0 5 C-0.66 4.67 -1.32 4.34 -2 4 C-1.34 2.68 -0.68 1.36 0 0 Z " fill="#1D8F2E" transform="translate(360,561)"/>
<path d="M0 0 C0.99 0 1.98 0 3 0 C1.9024777 2.99324263 1.32317108 3.84610901 -1.625 5.25 C-2.40875 5.4975 -3.1925 5.745 -4 6 C-2.1875 3 -2.1875 3 0 0 Z " fill="#1B8D2C" transform="translate(337,399)"/>
</svg>
